<?xml version="1.0" encoding="utf-8"?>
<!-- Generator: Adobe Illustrator 16.0.0, SVG Export Plug-In . SVG Version: 6.00 Build 0)  -->
<!DOCTYPE svg PUBLIC "-//W3C//DTD SVG 1.1//EN" "http://www.w3.org/Graphics/SVG/1.1/DTD/svg11.dtd">
<svg version="1.1" id="圖層_1" xmlns="http://www.w3.org/2000/svg" xmlns:xlink="http://www.w3.org/1999/xlink" x="0px" y="0px"
	 width="250px" height="211px" viewBox="0 0 250 211" enable-background="new 0 0 250 211" xml:space="preserve">
<rect width="250" height="211"/>
<g>
	<g>
		<g>
			<path fill="#FFFFFF" d="M26.622,64.953h-6.1V47.495h6.274c2.039,0,3.85,0.401,5.388,1.204c1.741,0.885,3.017,2.246,3.781,4.028
				c0.463,1.059,0.703,2.192,0.703,3.379c0,1.833-0.501,3.487-1.488,4.934C33.364,63.637,30.485,64.953,26.622,64.953z
				 M21.581,63.894h5.041c3.55,0,6.063-1.133,7.685-3.458c0.878-1.278,1.304-2.697,1.304-4.331c0-1.038-0.207-2.03-0.616-2.953
				c-0.667-1.56-1.775-2.743-3.292-3.516c-1.391-0.719-3.041-1.083-4.905-1.083h-5.216V63.894z M26.14,61.747h-1.788V50.663h1.788
				c1.839,0,3.369,0.438,4.54,1.303c1.356,0.992,2.044,2.432,2.044,4.28c0,1.882-0.691,3.313-2.056,4.264
				C29.518,61.329,27.996,61.747,26.14,61.747z M25.41,60.688h0.729c1.628,0,2.947-0.352,3.92-1.042
				c1.079-0.757,1.604-1.865,1.604-3.4c0-1.509-0.525-2.634-1.612-3.429c-0.985-0.728-2.305-1.096-3.912-1.096H25.41V60.688z"/>
		</g>
	</g>
	<g>
		<g>
			<path fill="#FFFFFF" d="M61.559,64.953H49.494V47.495h12.064v3.971h-7.374v2.143h4.517v3.97h-4.517v3.399h7.374V64.953z
				 M50.553,63.894H60.5v-1.857h-7.375v-5.518h4.517v-1.853h-4.517v-4.26H60.5v-1.853h-9.947V63.894z"/>
		</g>
	</g>
	<g>
		<g>
			<path fill="#FFFFFF" d="M89.704,64.953h-4.592l-6.125-9.91v9.91h-4.772V47.495h5.529l5.187,8.069v-8.069h4.773V64.953z
				 M85.7,63.894h2.944v-15.34H85.99v10.609l-6.825-10.609h-3.892v15.34h2.655V51.312L85.7,63.894z"/>
		</g>
	</g>
	<g>
		<g>
			<path fill="#FFFFFF" d="M111.574,65.151c-2.556,0-4.69-0.856-6.353-2.544c-1.654-1.684-2.493-3.834-2.493-6.386
				c0-2.734,0.794-4.967,2.361-6.63c1.571-1.679,3.756-2.527,6.484-2.527c3.26,0,5.745,1.262,7.387,3.751l0.314,0.48l-4.326,2.415
				l-0.23-0.542c-0.199-0.471-0.612-0.873-1.233-1.195c-0.653-0.339-1.295-0.509-1.911-0.509c-1.613,0-3.755,0.492-3.755,4.756
				c0,1.36,0.297,2.432,0.889,3.189c0.637,0.819,1.572,1.219,2.866,1.219c0.684,0,1.332-0.136,1.924-0.409
				c0.311-0.132,0.558-0.289,0.748-0.467h-3.201v-4.062h8.776v2.383c0,2.055-0.917,3.796-2.729,5.169
				C115.479,64.51,113.618,65.151,111.574,65.151z M111.574,48.124c-2.428,0-4.351,0.736-5.716,2.188
				c-1.394,1.489-2.072,3.42-2.072,5.911c0,2.262,0.736,4.165,2.188,5.646c1.477,1.497,3.309,2.225,5.6,2.225
				c1.804,0,3.442-0.567,4.873-1.688c1.559-1.183,2.315-2.598,2.315-4.33v-1.324h-6.659v1.944h3.769l-0.187,0.67
				c-0.215,0.79-0.807,1.402-1.754,1.824c-0.724,0.331-1.521,0.5-2.357,0.5c-1.621,0-2.866-0.55-3.701-1.625
				c-0.736-0.951-1.113-2.241-1.113-3.842c0-4.806,2.619-5.815,4.814-5.815c0.786,0,1.593,0.211,2.399,0.633
				c0.629,0.322,1.108,0.728,1.439,1.199l2.332-1.308C116.311,49.046,114.283,48.124,111.574,48.124z"/>
		</g>
	</g>
	<g>
		<g>
			<path fill="#FFFFFF" d="M29.575,99.248h-4.889v-6.531l-6.394-10.931h5.608l3.309,6.121l3.229-6.121h5.414l-6.278,10.733V99.248z
				 M25.746,98.189h2.771v-5.96l0.074-0.124l5.418-9.26h-2.932l-3.859,7.312l-3.944-7.312h-3.136l5.608,9.583V98.189z"/>
		</g>
	</g>
	<g>
		<g>
			<path fill="#FFFFFF" d="M55.545,99.611c-2.663,0-4.794-0.843-6.336-2.51c-1.514-1.597-2.283-3.755-2.283-6.415
				c0-2.713,0.762-4.896,2.258-6.493c1.506-1.596,3.645-2.407,6.361-2.407c2.688,0,4.818,0.815,6.324,2.424
				c1.497,1.596,2.259,3.776,2.259,6.477c0,2.738-0.741,4.914-2.201,6.473C60.422,98.784,58.274,99.611,55.545,99.611z
				 M55.545,82.845c-2.448,0-4.276,0.678-5.591,2.076c-1.325,1.411-1.97,3.296-1.97,5.765c0,2.378,0.67,4.293,1.998,5.691
				c1.356,1.464,3.177,2.176,5.562,2.176c2.457,0,4.289-0.691,5.609-2.114c1.269-1.36,1.914-3.292,1.914-5.753
				c0-2.423-0.662-4.359-1.969-5.749C59.798,83.547,57.932,82.845,55.545,82.845z M55.545,96.27c-2.08,0-4.562-0.972-4.562-5.6
				c0-4.628,2.481-5.6,4.562-5.6s4.558,0.972,4.558,5.6C60.103,95.298,57.625,96.27,55.545,96.27z M55.545,86.129
				c-1.506,0-3.503,0.471-3.503,4.541c0,4.07,1.997,4.542,3.503,4.542c1.501,0,3.499-0.472,3.499-4.542
				C59.044,86.6,57.046,86.129,55.545,86.129z"/>
		</g>
	</g>
	<g>
		<g>
			<path fill="#FFFFFF" d="M89.704,99.43h-4.592l-6.125-9.905v9.905h-4.772V81.967h5.529l5.187,8.074v-8.074h4.773V99.43z
				 M85.7,98.371h2.944V83.026H85.99v10.621l-6.825-10.621h-3.892v15.344h2.655V85.793L85.7,98.371z"/>
		</g>
	</g>
	<g>
		<g>
			<path fill="#FFFFFF" d="M111.574,99.744c-2.552,0-4.69-0.856-6.353-2.54c-1.654-1.695-2.493-3.846-2.493-6.394
				c0-2.734,0.794-4.967,2.361-6.634c1.571-1.675,3.756-2.523,6.484-2.523c3.256,0,5.741,1.262,7.387,3.751l0.314,0.476
				l-4.326,2.419l-0.23-0.542c-0.199-0.471-0.612-0.873-1.233-1.191c-0.666-0.339-1.311-0.513-1.911-0.513
				c-1.613,0-3.755,0.493-3.755,4.757c0,1.364,0.297,2.44,0.889,3.188c0.633,0.827,1.572,1.229,2.866,1.229
				c0.684,0,1.332-0.137,1.924-0.405c0.311-0.145,0.558-0.302,0.748-0.479h-3.201v-4.062h8.776v2.391
				c0,2.051-0.917,3.789-2.729,5.162C115.479,99.099,113.622,99.744,111.574,99.744z M111.574,82.712
				c-2.428,0-4.351,0.736-5.716,2.192c-1.373,1.464-2.072,3.449-2.072,5.906c0,2.295,0.716,4.144,2.193,5.654
				c1.451,1.472,3.337,2.221,5.595,2.221c1.804,0,3.442-0.571,4.873-1.692c1.559-1.183,2.315-2.597,2.315-4.322V91.34h-6.659v1.944
				h3.769l-0.187,0.67c-0.215,0.786-0.807,1.402-1.749,1.833c-0.729,0.331-1.526,0.5-2.362,0.5c-1.625,0-2.87-0.55-3.705-1.638
				c-0.732-0.935-1.109-2.229-1.109-3.838c0-4.806,2.619-5.815,4.814-5.815c0.771,0,1.577,0.211,2.396,0.629
				c0.633,0.327,1.112,0.728,1.443,1.208l2.332-1.307C116.302,83.634,114.279,82.712,111.574,82.712z"/>
		</g>
	</g>
	<g>
		<g>
			<path fill="#FFFFFF" d="M143.761,99.248h-4.889v-6.531l-6.39-10.931h5.604l3.313,6.121l3.226-6.121h5.414l-6.278,10.733V99.248z
				 M139.931,98.189h2.771v-5.96l0.074-0.124l5.418-9.26h-2.933l-3.854,7.312l-3.95-7.312h-3.131l5.604,9.583V98.189z"/>
		</g>
	</g>
	<g>
		<g>
			<path fill="#FFFFFF" d="M169.489,99.297c-2.282,0-4.123-0.612-5.467-1.816c-1.369-1.224-2.06-3.003-2.06-5.281V81.786h4.859
				v9.926c0,2.105,0.823,3.044,2.667,3.044c1.845,0,2.702-0.968,2.702-3.044v-9.926h4.888v10.381c0,2.304-0.715,4.103-2.125,5.343
				C173.639,98.693,171.798,99.297,169.489,99.297z M163.022,82.845V92.2c0,1.994,0.558,3.465,1.707,4.496
				c1.159,1.038,2.717,1.543,4.76,1.543c2.04,0,3.641-0.509,4.758-1.518c1.194-1.05,1.773-2.54,1.773-4.554v-9.322h-2.771v8.867
				c0,3.391-2.044,4.103-3.761,4.103c-1.699,0-3.726-0.711-3.726-4.103v-8.867H163.022z"/>
		</g>
	</g>
	<g>
		<g>
			<path fill="#FFFFFF" d="M206.022,99.248h-4.59l-6.126-9.914v9.914h-4.772V81.786h5.534l5.182,8.065v-8.065h4.772V99.248z
				 M202.02,98.189h2.944V82.845h-2.655v10.612l-6.819-10.612h-3.896v15.344h2.655V85.603L202.02,98.189z"/>
		</g>
	</g>
	<g>
		<g>
			<path fill="#FFFFFF" d="M26.622,133.535h-6.1v-17.463h6.274c2.039,0,3.85,0.405,5.388,1.199c1.741,0.902,3.017,2.259,3.781,4.033
				c0.463,1.055,0.703,2.196,0.703,3.387c0,1.832-0.501,3.49-1.493,4.926C33.36,132.215,30.481,133.535,26.622,133.535z
				 M21.581,132.476h5.041c3.545,0,6.056-1.133,7.685-3.461c0.865-1.254,1.304-2.71,1.304-4.323c0-1.042-0.207-2.038-0.616-2.961
				c-0.667-1.552-1.775-2.733-3.297-3.515c-1.386-0.721-3.036-1.084-4.9-1.084h-5.216V132.476z M26.14,130.334h-1.788v-11.085h1.788
				c1.835,0,3.361,0.435,4.536,1.294c1.36,0.997,2.048,2.44,2.048,4.29c0,1.881-0.691,3.316-2.056,4.265
				C29.518,129.916,27.996,130.334,26.14,130.334z M25.41,129.275h0.729c1.628,0,2.947-0.353,3.92-1.043
				c1.079-0.753,1.604-1.865,1.604-3.399c0-1.515-0.529-2.64-1.612-3.438c-0.989-0.719-2.305-1.088-3.912-1.088H25.41V129.275z"/>
		</g>
	</g>
	<g>
		<g>
			<path fill="#FFFFFF" d="M61.559,133.535H49.494v-17.463h12.064v3.979h-7.374v2.134h4.517v3.979h-4.517v3.392h7.374V133.535z
				 M50.553,132.476H60.5v-1.861h-7.375v-5.51h4.517v-1.86h-4.517v-4.252H60.5v-1.86h-9.947V132.476z"/>
		</g>
	</g>
	<g>
		<g>
			<path fill="#FFFFFF" d="M81.846,133.634c-2.275,0-4.422-0.509-6.382-1.514l-0.442-0.228l1.745-4.028l0.542,0.422
				c0.422,0.331,1.121,0.604,2.084,0.819c0.877,0.202,1.646,0.301,2.358,0.301c2.121,0,2.395-0.835,2.395-1.562
				c0-0.708-0.667-1.278-1.977-1.695l-4.318-1.369c-1.804-0.928-2.677-2.324-2.677-4.19c0-1.671,0.886-2.965,2.631-3.847
				c1.336-0.662,2.866-0.991,4.554-0.991c2.158,0,3.979,0.487,5.41,1.455l0.334,0.228l-1.409,4.111l-0.596-0.525
				c-0.385-0.339-1.067-0.62-2.027-0.832c-0.831-0.178-1.629-0.269-2.369-0.269c-1.617,0-1.617,0.608-1.617,0.868
				c0,0.092,0.091,0.579,1.886,1.122c2.259,0.693,3.647,1.194,4.252,1.537c1.675,0.948,2.523,2.354,2.523,4.174
				c0,1.989-0.704,3.537-2.086,4.6C85.431,133.158,83.814,133.634,81.846,133.634z M76.39,131.396
				c1.692,0.782,3.524,1.179,5.456,1.179c1.729,0,3.131-0.4,4.169-1.199c1.125-0.86,1.671-2.089,1.671-3.756
				c0-1.432-0.649-2.494-1.985-3.254c-0.529-0.3-1.89-0.782-4.037-1.443c-0.653-0.195-2.638-0.795-2.638-2.136
				c0-0.719,0.347-1.927,2.676-1.927c0.814,0,1.687,0.1,2.597,0.293c0.77,0.17,1.391,0.381,1.873,0.642l0.663-1.928
				c-1.2-0.703-2.706-1.059-4.476-1.059c-1.522,0-2.896,0.297-4.077,0.881c-1.378,0.691-2.048,1.642-2.048,2.899
				c0,1.456,0.661,2.511,2.026,3.218l4.227,1.332c1.804,0.574,2.718,1.485,2.718,2.705c0,1.195-0.601,2.622-3.453,2.622
				c-0.79,0-1.638-0.107-2.594-0.326c-0.795-0.179-1.432-0.397-1.936-0.657L76.39,131.396z"/>
		</g>
	</g>
	<g>
		<g>
			<path fill="#FFFFFF" d="M113.543,133.419h-4.537v-17.453h4.537V133.419z M110.064,132.36h2.42v-15.336h-2.42V132.36z"/>
		</g>
	</g>
	<g>
		<g>
			<path fill="#FFFFFF" d="M142.31,133.733c-2.569,0-4.707-0.856-6.357-2.544c-1.65-1.691-2.489-3.843-2.489-6.39
				c0-2.738,0.793-4.972,2.36-6.635c1.568-1.676,3.752-2.523,6.486-2.523c3.254,0,5.74,1.262,7.387,3.752l0.313,0.477l-4.335,2.432
				l-0.227-0.551c-0.199-0.471-0.601-0.859-1.229-1.191c-0.646-0.339-1.286-0.508-1.91-0.508c-1.613,0-3.761,0.491-3.761,4.748
				c0,1.36,0.299,2.437,0.89,3.201c0.637,0.818,1.576,1.215,2.871,1.215c0.686,0,1.33-0.135,1.918-0.404
				c0.306-0.141,0.555-0.298,0.745-0.472h-3.193v-4.07h8.769v2.392c0,2.051-0.914,3.787-2.721,5.161
				C146.209,133.088,144.353,133.733,142.31,133.733z M142.31,116.701c-2.466,0-4.336,0.716-5.717,2.192
				c-1.373,1.459-2.071,3.445-2.071,5.906c0,2.295,0.715,4.144,2.191,5.653c1.46,1.494,3.288,2.221,5.597,2.221
				c1.798,0,3.44-0.57,4.871-1.691c1.556-1.183,2.309-2.594,2.309-4.321v-1.332h-6.65v1.952h3.756l-0.179,0.665
				c-0.211,0.782-0.803,1.395-1.75,1.828c-0.723,0.332-1.518,0.501-2.356,0.501c-1.618,0-2.866-0.546-3.706-1.626
				c-0.741-0.955-1.112-2.249-1.112-3.85c0-4.798,2.621-5.808,4.818-5.808c0.798,0,1.607,0.211,2.402,0.633
				c0.624,0.327,1.104,0.728,1.431,1.2l2.337-1.312C147.041,117.624,145.014,116.701,142.31,116.701z"/>
		</g>
	</g>
	<g>
		<g>
			<path fill="#FFFFFF" d="M177.262,133.419h-4.591l-6.121-9.906v9.906h-4.773v-17.453h5.53l5.187,8.064v-8.064h4.769V133.419z
				 M173.258,132.36h2.945v-15.336h-2.651v10.613l-6.824-10.613h-3.892v15.336h2.655v-12.577L173.258,132.36z"/>
		</g>
	</g>
	<g>
		<g>
			<path fill="#FFFFFF" d="M34.58,167.738h-5.034l-1.914-8.139l-1.865,8.139h-5.033l-0.1-0.401l-4.289-16.978h4.744l2.204,9.372
				l2.411-9.372h4.058l2.407,9.431l2.221-9.431h4.582L34.58,167.738z M30.383,166.68h3.37l3.862-15.262h-2.39l-3.016,12.821
				l-3.267-12.821h-2.42l-3.272,12.747l-2.998-12.747h-2.552l3.859,15.262h3.362l2.7-11.763L30.383,166.68z"/>
		</g>
	</g>
	<g>
		<g>
			<path fill="#FFFFFF" d="M55.545,167.995c-2.663,0-4.794-0.844-6.336-2.511c-1.514-1.596-2.283-3.759-2.283-6.423
				c0-2.713,0.762-4.896,2.258-6.494c1.515-1.596,3.653-2.406,6.361-2.406c2.688,0,4.818,0.814,6.324,2.423
				c1.497,1.605,2.259,3.785,2.259,6.478c0,2.737-0.741,4.913-2.201,6.474C60.426,167.168,58.279,167.995,55.545,167.995z
				 M55.545,151.22c-2.407,0-4.289,0.699-5.591,2.076c-1.308,1.39-1.97,3.33-1.97,5.766c0,2.383,0.67,4.302,1.998,5.699
				c1.356,1.464,3.177,2.176,5.562,2.176c2.457,0,4.293-0.694,5.609-2.121c1.269-1.362,1.914-3.297,1.914-5.754
				c0-2.415-0.662-4.352-1.973-5.753C59.798,151.923,57.932,151.22,55.545,151.22z M55.545,164.646c-2.08,0-4.562-0.972-4.562-5.592
				c0-4.629,2.481-5.601,4.562-5.601s4.558,0.972,4.558,5.601C60.103,163.674,57.625,164.646,55.545,164.646z M55.545,154.512
				c-1.506,0-3.503,0.472-3.503,4.542c0,4.061,1.997,4.533,3.503,4.533c1.501,0,3.499-0.473,3.499-4.533
				C59.044,154.983,57.046,154.512,55.545,154.512z"/>
		</g>
	</g>
	<g>
		<g>
			<path fill="#FFFFFF" d="M89.525,167.813h-5.343l-2.812-5.947h-1.895v5.947h-4.776v-17.462h9.016c1.584,0,2.912,0.546,3.95,1.616
				c1.033,1.068,1.555,2.416,1.555,4c0,1.158-0.294,2.246-0.876,3.238c-0.497,0.848-1.155,1.506-1.958,1.965L89.525,167.813z
				 M84.853,166.755h3.003l-2.879-6.089l0.496-0.219c0.823-0.363,1.48-0.959,1.961-1.778c0.484-0.823,0.728-1.733,0.728-2.701
				c0-1.318-0.409-2.387-1.257-3.263c-0.84-0.873-1.887-1.295-3.189-1.295h-7.957v15.345h2.659v-5.947h3.623L84.853,166.755z
				 M82.702,158.665h-4.285v-5.146h4.285c0.757,0,1.409,0.224,1.948,0.666c0.558,0.45,0.852,1.096,0.852,1.865
				c0,0.766-0.281,1.402-0.836,1.895C84.12,158.424,83.463,158.665,82.702,158.665z M79.476,157.605h3.227
				c0.5,0,0.914-0.148,1.265-0.455c0.323-0.289,0.477-0.637,0.477-1.1c0-0.451-0.153-0.794-0.464-1.047
				c-0.347-0.285-0.765-0.426-1.277-0.426h-3.227V157.605z"/>
		</g>
	</g>
	<g>
		<g>
			<path fill="#FFFFFF" d="M121.299,167.813h-5.939l-3.627-6.055l-1.688,2.026v4.028h-4.854v-17.462h4.854v6.936l5.295-6.936h5.785
				l-6.262,7.622L121.299,167.813z M115.959,166.755h3.379l-5.791-8.855l5.336-6.489h-3.023l-6.874,9.013v-9.013h-2.738v15.345
				h2.738v-3.351l2.887-3.466L115.959,166.755z"/>
		</g>
	</g>
	<g>
		<g>
			<path fill="#FFFFFF" d="M141.892,168.028c-2.275,0-4.422-0.513-6.387-1.522l-0.438-0.227l1.746-4.008l0.533,0.405
				c0.443,0.335,1.166,0.616,2.093,0.814c0.881,0.203,1.65,0.302,2.356,0.302c2.122,0,2.396-0.831,2.396-1.555
				c0-0.265,0-1.067-1.973-1.696l-4.322-1.372c-1.803-0.931-2.676-2.329-2.676-4.187c0-1.684,0.885-2.978,2.635-3.851
				c1.34-0.666,2.87-1.004,4.553-1.004c2.156,0,3.976,0.495,5.41,1.472l0.335,0.228l-1.414,4.099l-0.596-0.521
				c-0.376-0.33-1.054-0.607-2.022-0.823c-0.802-0.178-1.6-0.269-2.37-0.269c-1.617,0-1.617,0.607-1.617,0.869
				c0,0.264,0.496,0.694,1.887,1.125c2.236,0.673,3.627,1.174,4.247,1.526c1.679,0.955,2.527,2.361,2.527,4.172
				c0,1.99-0.703,3.537-2.085,4.6C145.484,167.548,143.864,168.028,141.892,168.028z M136.436,165.782
				c1.688,0.786,3.521,1.188,5.456,1.188c1.732,0,3.135-0.405,4.173-1.204c1.125-0.863,1.67-2.092,1.67-3.76
				c0-1.423-0.652-2.489-1.993-3.254c-0.371-0.211-1.372-0.63-4.032-1.432c-1.133-0.352-2.635-0.951-2.635-2.138
				c0-0.72,0.349-1.928,2.676-1.928c0.848,0,1.726,0.1,2.603,0.294c0.769,0.17,1.385,0.381,1.865,0.637l0.665-1.924
				c-1.204-0.716-2.708-1.075-4.476-1.075c-1.517,0-2.891,0.303-4.081,0.898c-1.378,0.686-2.047,1.634-2.047,2.898
				c0,1.452,0.661,2.502,2.025,3.21l4.231,1.34c1.804,0.571,2.713,1.48,2.713,2.705c0,1.19-0.6,2.613-3.454,2.613
				c-0.789,0-1.633-0.107-2.588-0.326c-0.77-0.166-1.418-0.385-1.94-0.654L136.436,165.782z"/>
		</g>
	</g>
	<g>
		<g>
			<path fill="#FFFFFF" d="M177.138,167.813h-4.859v-6.75h-5.542v6.75h-4.832v-17.462h4.832v6.369h5.542v-6.369h4.859V167.813z
				 M173.337,166.755h2.742V151.41h-2.742v6.369h-7.66v-6.369h-2.713v15.345h2.713v-6.75h7.66V166.755z"/>
		</g>
	</g>
	<g>
		<g>
			<path fill="#FFFFFF" d="M198.293,167.995c-2.664,0-4.794-0.844-6.332-2.511c-1.518-1.596-2.287-3.759-2.287-6.423
				c0-2.713,0.761-4.9,2.262-6.494c1.51-1.596,3.648-2.406,6.357-2.406c2.693,0,4.822,0.814,6.328,2.423
				c1.502,1.605,2.262,3.78,2.262,6.478c0,2.733-0.744,4.913-2.207,6.478C203.178,167.168,201.031,167.995,198.293,167.995z
				 M198.293,151.22c-2.407,0-4.284,0.699-5.588,2.076c-1.307,1.39-1.973,3.33-1.973,5.766c0,2.387,0.674,4.302,2.002,5.699
				c1.336,1.443,3.201,2.176,5.559,2.176c2.428,0,4.313-0.712,5.608-2.121c1.277-1.362,1.923-3.297,1.923-5.754
				c0-2.42-0.666-4.352-1.972-5.748C202.549,151.923,200.679,151.22,198.293,151.22z M198.293,164.646
				c-2.08,0-4.562-0.972-4.562-5.592c0-4.629,2.481-5.601,4.562-5.601c2.081,0,4.559,0.972,4.559,5.601
				C202.852,163.674,200.374,164.646,198.293,164.646z M198.293,154.512c-1.506,0-3.503,0.472-3.503,4.542
				c0,4.061,1.997,4.533,3.503,4.533c1.501,0,3.499-0.473,3.499-4.533C201.792,154.983,199.794,154.512,198.293,154.512z"/>
		</g>
	</g>
	<g>
		<g>
			<path fill="#FFFFFF" d="M223.883,167.821h-4.773v-17.462h9.012c1.585,0,2.92,0.542,3.971,1.604
				c1.038,1.06,1.563,2.412,1.563,4.013c0,1.6-0.517,2.994-1.534,4.14c-1.043,1.17-2.391,1.766-4.012,1.766h-4.227V167.821z
				 M220.168,166.763h2.654v-5.938h5.287c1.323,0,2.378-0.464,3.217-1.411c0.845-0.947,1.271-2.101,1.271-3.437
				s-0.413-2.403-1.258-3.268c-0.856-0.869-1.91-1.291-3.218-1.291h-7.953V166.763z M227.166,158.682h-4.344v-5.146h4.344
				c0.753,0,1.406,0.224,1.936,0.657c0.559,0.472,0.84,1.101,0.84,1.873c0,0.754-0.285,1.407-0.827,1.891
				C228.596,158.437,227.939,158.682,227.166,158.682z M223.883,157.623h3.283c0.509,0,0.91-0.146,1.236-0.447
				c0.327-0.29,0.48-0.649,0.48-1.109c0-0.458-0.146-0.793-0.459-1.059c-0.335-0.277-0.749-0.413-1.258-0.413h-3.283V157.623z"/>
		</g>
	</g>
</g>
</svg>
