<?xml version="1.0" encoding="utf-8"?>
<!-- Generator: Adobe Illustrator 16.0.0, SVG Export Plug-In . SVG Version: 6.00 Build 0)  -->
<!DOCTYPE svg PUBLIC "-//W3C//DTD SVG 1.1//EN" "http://www.w3.org/Graphics/SVG/1.1/DTD/svg11.dtd">
<svg version="1.1" id="Layer_1" xmlns="http://www.w3.org/2000/svg" xmlns:xlink="http://www.w3.org/1999/xlink" x="0px" y="0px"
	 width="40px" height="40px" viewBox="0 0 40 40" enable-background="new 0 0 40 40" xml:space="preserve">
<g>
	<path d="M20.022,40.043C8.981,40.043,0,31.061,0,20.021C0,8.981,8.981,0,20.022,0c11.04,0,20.021,8.981,20.021,20.022
		C40.043,31.061,31.062,40.043,20.022,40.043z M20.022,1.211C9.65,1.211,1.211,9.65,1.211,20.021
		c0,10.373,8.438,18.812,18.811,18.812s18.811-8.439,18.811-18.812C38.833,9.65,30.394,1.211,20.022,1.211z"/>
</g>
<g>
	<polygon points="18.358,29.039 17.502,28.181 25.662,20.021 17.502,11.863 18.358,11.006 27.375,20.021 	"/>
</g>
</svg>
